<svg width="42" height="42" viewBox="0 0 42 42" fill="none" xmlns="http://www.w3.org/2000/svg">
<path d="M8.75 28C6.825 28 5.17708 27.3146 3.80625 25.9437C2.43542 24.5729 1.75 22.925 1.75 21C1.75 19.075 2.43542 17.4271 3.80625 16.0563C5.17708 14.6854 6.825 14 8.75 14C10.675 14 12.3229 14.6854 13.6937 16.0563C15.0646 17.4271 15.75 19.075 15.75 21C15.75 22.925 15.0646 24.5729 13.6937 25.9437C12.3229 27.3146 10.675 28 8.75 28ZM8.75 24.5C9.7125 24.5 10.5368 24.1576 11.2228 23.4728C11.9088 22.7879 12.2512 21.9637 12.25 21C12.2488 20.0363 11.9064 19.2127 11.2228 18.529C10.5391 17.8453 9.71483 17.5023 8.75 17.5C7.78517 17.4977 6.9615 17.8407 6.279 18.529C5.5965 19.2173 5.2535 20.041 5.25 21C5.2465 21.959 5.5895 22.7833 6.279 23.4728C6.9685 24.1623 7.79217 24.5047 8.75 24.5ZM29.75 31.5C26.8333 31.5 24.3542 30.4792 22.3125 28.4375C20.2708 26.3958 19.25 23.9167 19.25 21C19.25 18.0833 20.2708 15.6042 22.3125 13.5625C24.3542 11.5208 26.8333 10.5 29.75 10.5C32.6667 10.5 35.1458 11.5208 37.1875 13.5625C39.2292 15.6042 40.25 18.0833 40.25 21C40.25 23.9167 39.2292 26.3958 37.1875 28.4375C35.1458 30.4792 32.6667 31.5 29.75 31.5Z" fill="#262626"/>
</svg>
