<svg width="42" height="42" viewBox="0 0 42 42" fill="none" xmlns="http://www.w3.org/2000/svg">
<path d="M36.75 30.1875H31.5C30.8038 30.1875 30.1361 29.9109 29.6438 29.4187C29.1516 28.9264 28.875 28.2587 28.875 27.5625V14.4375C28.875 13.7413 29.1516 13.0736 29.6438 12.5813C30.1361 12.0891 30.8038 11.8125 31.5 11.8125H36.75C37.4462 11.8125 38.1139 12.0891 38.6062 12.5813C39.0984 13.0736 39.375 13.7413 39.375 14.4375V27.5625C39.375 28.2587 39.0984 28.9264 38.6062 29.4187C38.1139 29.9109 37.4462 30.1875 36.75 30.1875ZM31.5 14.4375V27.5625H36.75V14.4375H31.5ZM23.625 30.1875H15.75V27.5625H23.625V22.3125H18.375C17.6788 22.3125 17.0111 22.0359 16.5188 21.5437C16.0266 21.0514 15.75 20.3837 15.75 19.6875V14.4375C15.75 13.7413 16.0266 13.0736 16.5188 12.5813C17.0111 12.0891 17.6788 11.8125 18.375 11.8125H26.25V14.4375H18.375V19.6875H23.625C24.3212 19.6875 24.9889 19.9641 25.4812 20.4563C25.9734 20.9486 26.25 21.6163 26.25 22.3125V27.5625C26.25 28.2587 25.9734 28.9264 25.4812 29.4187C24.9889 29.9109 24.3212 30.1875 23.625 30.1875ZM2.625 14.4375H6.5625V27.5625H2.625V30.1875H13.125V27.5625H9.1875V14.4375H13.125V11.8125H2.625V14.4375Z" fill="#262626"/>
</svg>
